<svg xmlns="http://www.w3.org/2000/svg" xmlns:xlink="http://www.w3.org/1999/xlink" version="1.1" x="0px" y="0px" width="100px" height="100px" viewBox="0 0 100 100" enable-background="new 0 0 100 100" xml:space="preserve">
<g id="Captions">
</g>
<g id="Your_Icon">
	<path d="M25.439,90c0,0,8.009-29.663,7.92-34.157c-0.089-4.49-3.368-6.796-3.368-6.796c-9.397-5.318-12.056-7.919-16.548-13.179   c-4.492-5.26-5.791-13.533-7.918-15.956c-2.127-2.423-0.296-2.157-0.296-2.157c3.044,0.206,5.319,3.634,5.615,3.812   c0.295,0.178,1.063,0.354,1.063-0.591c0-1.246-0.041-5.496,0-8.569c0.029-2.276,0.553-2.688,1.331-2.254   c0.914,0.51,2.017,2.828,2.273,3.495c0.219,0.567,0.577,0.843,0.917,0.354c0.239-0.345,1.115-0.558,1.625,0.118   c0.546,0.724,1.123,3.015,1.123,3.015s1.115,0.017,1.477,0.442c0.68,0.797,0.608,2.632,0.474,4.758   c-0.266,4.226,0.766,6.37,1.654,8.806c0.797,2.186,2.659,2.511,2.57,2.068c-0.306-1.534-0.561-8.658-0.457-9.981   c0.122-1.537,1.049-2.843,2.792-1.249c1.513,1.385,1.33,3.605,1.95,8.156c0.671,4.931,5.431,6.035,7.564,7.062   c3.251,1.566,6.851,6.419,8.037,11.789C46.419,54.336,44.528,90,44.528,90H25.439z M74.561,90c0,0-8.009-29.663-7.919-34.157   c0.088-4.49,3.368-6.796,3.368-6.796c9.396-5.318,12.056-7.919,16.547-13.179c4.492-5.26,5.791-13.533,7.919-15.956   c2.128-2.423,0.296-2.157,0.296-2.157c-3.044,0.206-5.318,3.634-5.614,3.812c-0.296,0.178-1.063,0.354-1.063-0.591   c0-1.246,0.039-5.496,0-8.569c-0.03-2.276-0.554-2.688-1.333-2.254c-0.914,0.51-2.016,2.828-2.272,3.495   c-0.219,0.567-0.576,0.843-0.916,0.354c-0.24-0.345-1.116-0.558-1.625,0.118c-0.546,0.724-1.123,3.015-1.123,3.015   s-1.116,0.017-1.478,0.442c-0.68,0.797-0.606,2.632-0.473,4.758c0.266,4.226-0.767,6.37-1.654,8.806   c-0.798,2.186-2.659,2.511-2.57,2.068c0.307-1.534,0.561-8.658,0.456-9.981c-0.12-1.537-1.048-2.843-2.791-1.249   c-1.514,1.385-1.33,3.605-1.95,8.156c-0.673,4.931-5.432,6.035-7.564,7.062c-3.25,1.566-6.851,6.419-8.037,11.789   C53.581,54.336,55.473,90,55.473,90H74.561z"/>
</g>
</svg>