<svg xmlns="http://www.w3.org/2000/svg" xmlns:xlink="http://www.w3.org/1999/xlink" version="1.1" id="Your_Icon" x="0px" y="0px" width="100px" height="100px" viewBox="0 0 100 100" style="enable-background:new 0 0 100 100;" xml:space="preserve">
<g>
	<path d="M457.826,69.532c-5.164-3.295-31.459-20.299-46.14-29.797c1.145-9.545-3.039-19.349-11.659-24.916   c-8.588-5.547-19.214-5.357-27.436-0.437l23.325,15.079l-0.65,13.189l-11.75,6.022l-23.34-15.078   c-1.114,9.518,3.086,19.283,11.674,24.836c8.613,5.56,19.263,5.352,27.493,0.397c14.719,9.518,41.133,26.594,46.138,29.811   C452.487,93.146,465.065,74.16,457.826,69.532z"/>
	<g>
		<rect x="-60.99" y="18.797" transform="matrix(0.9758 -0.2188 0.2188 0.9758 -6.9899 -11.5727)" width="10.472" height="13.962"/>
		
			<rect x="-58.156" y="40.979" transform="matrix(-0.2187 -0.9758 0.9758 -0.2187 -107.4611 6.3902)" width="13.967" height="10.474"/>
		
			<rect x="-53.574" y="61.416" transform="matrix(-0.2187 -0.9758 0.9758 -0.2187 -121.8244 35.768)" width="13.961" height="10.476"/>
		
			<rect x="-89.298" y="68.066" transform="matrix(-0.9758 0.2186 -0.2186 -0.9758 -149.6852 166.6586)" width="10.472" height="13.968"/>
		<path d="M-48.648,81.424l2.762,12.333c3.363-1.851,6.465-4.056,9.261-6.57l-1.805-8.05L-48.648,81.424z"/>
		<path d="M-30.845,81.047c9.044-11.421,13.059-26.659,9.627-41.98C-24.653,23.749-34.787,11.68-47.841,5.211L-30.845,81.047z"/>
		<path d="M-75.899,87.53l-10.219,2.292l1.807,8.054c3.601,1.082,7.352,1.75,11.179,1.99L-75.899,87.53z"/>
		<path d="M-109.154,18.946c-9.046,11.421-13.061,26.663-9.628,41.985c3.435,15.32,13.569,27.391,26.622,33.858L-109.154,18.946z"/>
		<polygon points="-82.006,60.278 -85.058,46.656 -95.274,48.944 -92.225,62.572   "/>
		<path d="M-91.165,19.401l-2.949-13.164c-3.36,1.852-6.465,4.053-9.261,6.571l1.993,8.885L-91.165,19.401z"/>
		<path d="M-63.917,13.296l10.223-2.289l-1.991-8.883c-3.602-1.082-7.346-1.752-11.179-1.99L-63.917,13.296z"/>
		<polygon points="-86.583,39.841 -89.638,26.218 -99.86,28.505 -96.804,42.13   "/>
	</g>
	<g>
		<polygon points="294.564,54.569 276.459,59.42 263.21,46.166 268.061,28.066 286.166,23.215 299.415,36.464   "/>
		<path d="M241.751,36.855l32.233,32.233l27.683-7.419l7.416-27.685L276.85,1.753c16.738-4.538,35.358-0.273,48.497,12.861    c19.538,19.531,19.538,51.202,0,70.737c-19.531,19.531-51.206,19.531-70.737,0C241.471,72.21,237.213,53.59,241.751,36.855z"/>
	</g>
	<path d="M55.808,0.345C28.378-2.861,3.547,16.77,0.344,44.199C-2.865,71.618,16.77,96.452,44.194,99.655   c27.424,3.209,52.248-16.426,55.464-43.851C102.861,28.385,83.233,3.547,55.808,0.345z M78.09,65.746l-19.729-7.461l-7.709,3.585   l-7.421,19.605l-8.972-3.401l7.363-19.479l-3.737-8.043l-19.358-7.317l3.398-8.979l19.65,7.422l7.813-3.62l7.382-19.533   l8.979,3.395l-7.52,19.896l3.477,7.474l19.769,7.476L78.09,65.746z"/>
	<path d="M169.997,0C142.384,0,120,22.39,120,50c0,27.617,22.384,50,49.997,50C197.617,100,220,77.617,220,50   C220,22.39,197.617,0,169.997,0z M147.81,70.873c-3.337,1.924-7.604,0.781-9.531-2.559c-1.931-3.334-0.781-7.602,2.553-9.528   c3.339-1.927,7.604-0.784,9.53,2.556C152.291,64.678,151.146,68.946,147.81,70.873z M150.361,38.667   c-1.927,3.336-6.191,4.479-9.53,2.552c-3.334-1.928-4.483-6.191-2.553-9.532c1.927-3.332,6.194-4.479,9.531-2.552   C151.146,31.061,152.291,35.327,150.361,38.667z M169.997,86.628c-3.851,0-6.977-3.122-6.977-6.974   c0-3.854,3.126-6.979,6.977-6.979c3.857,0,6.982,3.125,6.982,6.979C176.979,83.506,173.854,86.628,169.997,86.628z M169.997,27.329   c-3.851,0-6.977-3.125-6.977-6.977c0-3.854,3.126-6.976,6.977-6.976c3.857,0,6.982,3.121,6.982,6.976   C176.979,24.204,173.854,27.329,169.997,27.329z M201.723,68.317c-1.927,3.337-6.195,4.479-9.531,2.552   c-3.34-1.923-4.482-6.194-2.552-9.527c1.927-3.34,6.19-4.482,9.53-2.556C202.504,60.713,203.646,64.98,201.723,68.317z    M199.17,41.218c-3.34,1.927-7.607,0.784-9.53-2.552c-1.931-3.34-0.788-7.605,2.552-9.532c3.336-1.927,7.604-0.78,9.531,2.552   C203.646,35.024,202.504,39.291,199.17,41.218z"/>
</g>
</svg>