<?xml version="1.0" encoding="utf-8"?>
<!-- Generator: Adobe Illustrator 16.0.0, SVG Export Plug-In . SVG Version: 6.00 Build 0)  -->
<!DOCTYPE svg PUBLIC "-//W3C//DTD SVG 1.1//EN" "http://www.w3.org/Graphics/SVG/1.1/DTD/svg11.dtd">
<svg version="1.1" id="Layer_2" xmlns="http://www.w3.org/2000/svg" xmlns:xlink="http://www.w3.org/1999/xlink" x="0px" y="0px"
	 width="140px" height="140px" viewBox="0 0 140 140" enable-background="new 0 0 140 140" xml:space="preserve">
<circle fill="#39B54A" cx="70" cy="70" r="70"/>
<g>
	<g>
		<path d="M43.557,71.287c-12.813,0-23.237-10.427-23.237-23.237v-1.917c0-12.813,10.424-23.205,23.237-23.205h5.213v-2.577h-5.213
			c-14.227,0-25.781,11.589-25.781,25.782v1.917c0,14.224,11.587,25.782,25.781,25.782h7.817l2.577-2.578H43.557V71.287z"/>
		<path d="M46.1,122.22h-2.543c-12.813,0-23.237-10.425-23.237-23.204c0-0.694-0.567-1.289-1.289-1.289
			c-0.723,0-1.289,0.595-1.289,1.289c0,14.222,11.587,25.781,25.782,25.781h2.543c-0.063-0.41-0.125-0.852-0.125-1.289
			C45.974,123.067,46.037,122.657,46.1,122.22z"/>
		<path d="M96.438,71.287h-8.828l-2.539,2.575h11.367c12.811,0,23.209,10.425,23.209,23.204v1.918
			c0,12.811-10.429,23.205-23.209,23.205h-3.202c0.062,0.438,0.123,0.848,0.123,1.285c0,0.44-0.03,0.881-0.123,1.288h3.172
			c14.222,0,25.778-11.556,25.778-25.778v-1.918C122.217,82.872,110.664,71.287,96.438,71.287z"/>
		<path d="M81.016,88.932c0,0-2.762,2.766-3.861,3.832C76.088,93.83,77,94.777,77,94.777s0.625,0.594,1.541,1.534
			c0.906,0.943,4.892,0.034,4.892,0.034l2.454,2.479c0,0,11.525,11.621,12.527,12.625c1.008,1.002,3.992,0.94,4.932,0
			c0.939-0.912,2.481-2.45,2.481-2.45s1.538-1.538,2.481-2.447c0.909-0.913,1.002-3.924,0-4.901
			c-1.008-1.005-12.53-12.592-12.53-12.592l-2.45-2.481c0,0,0.943-3.989,0-4.929c-0.91-0.943-1.542-1.538-1.542-1.538
			s-0.905-0.913-2.007,0.153c-1.066,1.07-3.861,3.836-3.861,3.836l-5.496-5.527l-4.898,4.963L81.016,88.932z"/>
		<polygon points="51.5,49.335 47.826,43.181 42.928,38.25 33.414,33.008 31.874,34.545 30.304,36.085 35.518,45.63 40.416,50.561 
			46.57,54.234 58.755,66.514 63.686,61.614 		"/>
		<path d="M97.066,61.74c0.154-0.158,0.314-0.377,0.407-0.596l11.464-25.249c0.342-0.754,0.185-1.632-0.414-2.229l0,0
			c-0.594-0.599-1.473-0.755-2.225-0.41c0,0-26.188,11.965-26.318,12.122L63.686,61.614l-4.931,4.899l-4.773,4.773l-2.575,2.575
			L30.869,94.305c-0.784,0.783-0.784,2.041,0,2.827l4.931,4.963c0,0,0,0,0,0.03c0,0,0,0,0.03,0l4.461,4.488l0,0l0,0h0.029
			l4.806,4.803l0,0c0,0,0.03,0,0.03,0.033c0.786,0.787,2.043,0.787,2.828,0c0.093-0.096,0.187-0.222,0.25-0.314l27.412-27.699
			l4.898-4.928l4.59-4.646l2.539-2.575L97.066,61.74z M93.044,43.559c0.222,1.444,0.786,2.67,1.791,3.673
			c1.097,1.101,2.447,1.696,3.612,2.073l-4.271,9.389L83.563,47.797L93.044,43.559z M35.077,95.748l20.632-20.566l15.92-15.859
			l8.102-8.071c0.188,0.314,0.441,0.629,0.752,0.911c0.414,0.408,0.817,0.689,1.258,0.943l-8.131,8.163L57.75,77.219L37.181,97.854
			L35.077,95.748z M39.977,100.676l20.599-20.627l15.857-15.923l8.073-8.103c0.185,0.314,0.438,0.629,0.748,0.911
			c0,0,0,0,0.035,0.032c0.317,0.314,0.629,0.533,0.943,0.752l-8.074,8.103L62.303,81.744l-20.567,20.662L39.977,100.676z
			 M46.476,107.208l-1.979-2.01l20.6-20.661l15.861-15.891l8.036-8.068c0.222,0.313,0.438,0.627,0.755,0.94h0.03
			c0.346,0.347,0.691,0.629,1.07,0.849l-8.043,8.134L67.013,86.484L46.476,107.208z"/>
		<path d="M93.235,122.22c-0.629-3.64-3.771-6.437-7.599-6.437h-4.176v15.449h4.176c3.828,0,6.97-2.795,7.599-6.436
			c0.062-0.41,0.123-0.852,0.123-1.289C93.358,123.067,93.328,122.657,93.235,122.22z"/>
		<rect x="72.479" y="115.783" width="5.116" height="15.449"/>
		<rect x="64.595" y="115.783" width="1.382" height="15.449"/>
		<path d="M62.021,115.783h-8.321c-3.833,0-6.973,2.797-7.6,6.437c-0.063,0.407-0.126,0.848-0.126,1.288
			c0,0.438,0.03,0.879,0.126,1.289c0.627,3.641,3.767,6.436,7.6,6.436h8.321V115.783z"/>
		<rect x="68.52" y="115.783" width="1.383" height="15.449"/>
		<path d="M60.387,8.827c-6.091,0.596-10.895,5.433-11.523,11.523h11.523V8.827z"/>
		<path d="M48.863,22.928c0.597,6.061,5.433,10.895,11.523,11.523V22.928H48.863z"/>
		<path d="M62.963,34.482H77.69c7.096,0,12.872-5.748,12.872-12.876c0-7.096-5.742-12.874-12.872-12.874H62.963V34.482z"/>
	</g>
</g>
</svg>
