<?xml version="1.0" encoding="utf-8"?>
<!-- Generator: Adobe Illustrator 16.0.0, SVG Export Plug-In . SVG Version: 6.00 Build 0)  -->
<!DOCTYPE svg PUBLIC "-//W3C//DTD SVG 1.1//EN" "http://www.w3.org/Graphics/SVG/1.1/DTD/svg11.dtd">
<svg version="1.1" id="Layer_2" xmlns="http://www.w3.org/2000/svg" xmlns:xlink="http://www.w3.org/1999/xlink" x="0px" y="0px"
	 width="140px" height="140px" viewBox="0 0 140 140" enable-background="new 0 0 140 140" xml:space="preserve">
<circle fill="#FF0000" cx="70" cy="70" r="70"/>
<path d="M115.001,71.567c0-24.866-20.165-45.003-45-45.003c-24.866,0-45,20.165-45,45.003c0,19.01,11.77,35.278,28.441,41.855
	l11.395-28.759c-5.22-2.048-8.913-7.155-8.913-13.097c0-7.79,6.318-14.077,14.077-14.077c7.789,0,14.076,6.316,14.076,14.077
	c0,5.941-3.693,11.018-8.885,13.097l11.396,28.759C103.23,106.846,115.001,90.577,115.001,71.567z"/>
</svg>
