<?xml version="1.0" encoding="utf-8"?>
<!-- Generator: Adobe Illustrator 16.0.0, SVG Export Plug-In . SVG Version: 6.00 Build 0)  -->
<!DOCTYPE svg PUBLIC "-//W3C//DTD SVG 1.1//EN" "http://www.w3.org/Graphics/SVG/1.1/DTD/svg11.dtd">
<svg version="1.1"
	 id="Layer_1" xmlns:dc="http://purl.org/dc/elements/1.1/" xmlns:cc="http://creativecommons.org/ns#" xmlns:rdf="http://www.w3.org/1999/02/22-rdf-syntax-ns#" xmlns:svg="http://www.w3.org/2000/svg"
	 xmlns="http://www.w3.org/2000/svg" xmlns:xlink="http://www.w3.org/1999/xlink" x="0px" y="0px" width="140px" height="140px"
	 viewBox="0 0 140 140" enable-background="new 0 0 140 140" xml:space="preserve">
<circle fill="#FCEE21" cx="70" cy="70" r="70"/>
<g>
	<path d="M52.044,20.001c-0.506,0.016-1.05,0.202-1.668,0.69c-1.513-0.583-2.98-0.787-4.292,0.402
		c-2.025-0.263-2.684,0.279-3.183,0.912c-0.445-0.009-3.328-0.457-4.65,1.515c-3.323-0.393-4.373,1.955-3.183,4.143
		c-0.679,1.051-1.382,2.089,0.205,4.091c-0.562,1.116-0.213,2.326,1.109,3.79c-0.349,1.568,0.337,2.674,1.568,3.537
		c-0.23,2.146,1.967,3.394,2.624,3.838c0.252,1.25,0.777,2.43,3.288,3.083c0.415,1.864,1.923,2.185,3.384,2.577
		c-4.829,2.807-8.97,6.5-8.942,15.561L37.597,65.4c-5.537,3.368-10.519,14.191-2.729,22.988c0.509,2.754,1.363,4.731,2.123,6.92
		c1.137,8.82,8.553,12.951,10.509,13.439c2.866,2.183,5.919,4.255,10.051,5.706c3.895,4.017,8.114,5.548,12.356,5.545
		c0.063,0,0.125,0.001,0.188,0c4.243,0.002,8.462-1.528,12.356-5.545c4.131-1.451,7.185-3.523,10.051-5.706
		c1.957-0.488,9.374-4.619,10.51-13.439c0.76-2.189,1.613-4.167,2.122-6.92c7.791-8.797,2.808-19.62-2.729-22.988l-0.707-1.261
		c0.028-9.061-4.113-12.754-8.942-15.561c1.461-0.392,2.969-0.713,3.384-2.577c2.51-0.653,3.036-1.832,3.288-3.083
		c0.657-0.444,2.855-1.692,2.625-3.838c1.23-0.862,1.917-1.968,1.567-3.537c1.322-1.464,1.67-2.674,1.109-3.79
		c1.587-2.002,0.884-3.04,0.205-4.091c1.189-2.188,0.139-4.536-3.184-4.143c-1.322-1.972-4.205-1.524-4.649-1.515
		c-0.499-0.633-1.158-1.175-3.184-0.912c-1.312-1.188-2.779-0.985-4.292-0.402c-1.797-1.418-2.986-0.281-4.344,0.148
		c-2.176-0.711-2.673,0.263-3.742,0.659c-2.372-0.501-3.092,0.59-4.231,1.742l-1.323-0.026c-3.578,2.109-5.356,6.403-5.986,8.61
		c-0.63-2.208-2.404-6.502-5.982-8.61l-1.323,0.026c-1.138-1.152-1.859-2.243-4.23-1.742c-1.069-0.396-1.566-1.37-3.742-0.659
		C53.83,20.557,53.009,19.971,52.044,20.001z"/>
	<path fill="#75A928" d="M44.921,29.278c9.494,4.895,15.012,8.854,18.036,12.226c-1.549,6.206-9.626,6.49-12.58,6.315
		c0.604-0.281,1.109-0.619,1.288-1.136c-0.741-0.527-3.369-0.055-5.204-1.086c0.705-0.146,1.035-0.288,1.364-0.808
		c-1.733-0.553-3.601-1.029-4.698-1.945c0.592,0.007,1.146,0.132,1.919-0.405c-1.552-0.836-3.209-1.5-4.497-2.779
		c0.803-0.02,1.668-0.007,1.92-0.303c-1.421-0.88-2.62-1.859-3.612-2.93c1.123,0.136,1.597,0.019,1.869-0.177
		c-1.074-1.1-2.434-2.029-3.082-3.385c0.834,0.287,1.597,0.397,2.147-0.025c-0.365-0.824-1.929-1.309-2.829-3.233
		c0.877,0.085,1.809,0.192,1.995,0c-0.408-1.661-1.107-2.595-1.793-3.562c1.879-0.028,4.726,0.007,4.597-0.152l-1.162-1.187
		c1.835-0.495,3.713,0.079,5.077,0.505c0.612-0.483-0.011-1.094-0.758-1.718c1.56,0.208,2.969,0.567,4.244,1.061
		c0.681-0.615-0.442-1.229-0.985-1.844c2.41,0.458,3.431,1.1,4.446,1.743c0.736-0.705,0.042-1.305-0.455-1.919
		c1.817,0.673,2.753,1.542,3.738,2.4c0.334-0.451,0.849-0.781,0.228-1.87c1.29,0.744,2.262,1.62,2.981,2.602
		c0.798-0.508,0.475-1.204,0.479-1.844c1.341,1.091,2.191,2.252,3.233,3.385c0.21-0.152,0.394-0.671,0.556-1.49
		c3.199,3.104,7.719,10.92,1.162,14.019C58.971,35.133,52.307,31.788,44.921,29.278z"/>
	<path fill="#75A928" d="M95.294,29.278c-9.494,4.895-15.012,8.854-18.036,12.226c1.549,6.206,9.626,6.49,12.58,6.315
		c-0.604-0.281-1.109-0.619-1.288-1.136c0.741-0.527,3.369-0.055,5.204-1.086c-0.705-0.146-1.035-0.288-1.364-0.808
		c1.733-0.553,3.601-1.029,4.699-1.945c-0.593,0.007-1.146,0.132-1.921-0.405c1.553-0.836,3.21-1.5,4.497-2.779
		c-0.803-0.02-1.667-0.007-1.919-0.303c1.421-0.88,2.62-1.859,3.611-2.93c-1.123,0.136-1.597,0.019-1.869-0.177
		c1.074-1.1,2.434-2.029,3.082-3.385c-0.834,0.287-1.598,0.397-2.148-0.025c0.366-0.824,1.93-1.309,2.83-3.233
		c-0.878,0.085-1.809,0.192-1.995,0c0.408-1.661,1.107-2.595,1.793-3.562c-1.879-0.028-4.727,0.007-4.597-0.152l1.161-1.187
		c-1.835-0.495-3.713,0.079-5.077,0.505c-0.612-0.483,0.011-1.094,0.758-1.718c-1.56,0.208-2.969,0.567-4.244,1.061
		c-0.681-0.615,0.442-1.229,0.984-1.844c-2.41,0.458-3.431,1.1-4.446,1.743c-0.735-0.705-0.042-1.305,0.455-1.919
		c-1.817,0.673-2.753,1.542-3.739,2.4c-0.333-0.451-0.849-0.781-0.227-1.87c-1.29,0.744-2.262,1.62-2.98,2.602
		c-0.798-0.508-0.476-1.204-0.48-1.844c-1.341,1.091-2.191,2.252-3.233,3.385c-0.209-0.152-0.394-0.671-0.556-1.49
		c-3.199,3.104-7.718,10.92-1.162,14.019C81.244,35.133,87.908,31.788,95.294,29.278L95.294,29.278z"/>
	<path fill="#BC1142" d="M81.605,92.473c0,5.792-5.092,10.487-11.372,10.487c-6.281,0-11.372-4.695-11.372-10.487
		c0-5.791,5.091-10.486,11.372-10.486C76.513,81.987,81.605,86.682,81.605,92.473z"/>
	<path fill="#BC1142" d="M63.652,62.518c4.711,3.087,5.561,10.084,1.897,15.629c-3.664,5.545-10.454,7.538-15.166,4.451l0,0
		c-4.712-3.087-5.562-10.084-1.897-15.63C52.15,61.423,58.94,59.431,63.652,62.518L63.652,62.518z"/>
	<path fill="#BC1142" d="M76.371,61.959c-4.712,3.087-5.561,10.085-1.897,15.629s10.454,7.537,15.166,4.45l0,0
		c4.712-3.087,5.562-10.084,1.897-15.629C87.872,60.865,81.083,58.872,76.371,61.959L76.371,61.959z"/>
	<path fill="#BC1142" d="M40.104,67.566c5.087-1.363,1.717,21.046-2.422,19.208C33.129,83.111,31.662,72.386,40.104,67.566z"/>
	<path fill="#BC1142" d="M98.892,67.286c-5.088-1.363-1.717,21.046,2.422,19.208C105.867,82.832,107.333,72.106,98.892,67.286z"/>
	<path fill="#BC1142" d="M81.608,50.599c8.779-1.482,16.083,3.734,15.79,13.253C97.109,67.501,78.374,51.142,81.608,50.599z"/>
	<path fill="#BC1142" d="M57.352,50.32c-8.779-1.482-16.084,3.734-15.79,13.253C41.85,67.222,60.585,50.863,57.352,50.32z"/>
	<path fill="#BC1142" d="M69.962,48.098c-5.239-0.136-10.268,3.889-10.28,6.224c-0.015,2.837,4.143,5.741,10.316,5.815
		c6.304,0.045,10.328-2.325,10.347-5.253C80.369,51.568,74.612,48.047,69.962,48.098z"/>
	<path fill="#BC1142" d="M70.282,106.271c4.568-0.199,10.698,1.472,10.71,3.688c0.076,2.152-5.559,7.016-11.013,6.921
		c-5.649,0.243-11.188-4.626-11.115-6.315C58.78,108.091,65.743,106.158,70.282,106.271z"/>
	<path fill="#BC1142" d="M53.408,93.136c3.253,3.918,4.735,10.803,2.021,12.832c-2.568,1.55-8.804,0.912-13.236-5.457
		c-2.989-5.342-2.604-10.779-0.505-12.377C44.826,86.223,49.676,88.805,53.408,93.136z"/>
	<path fill="#BC1142" d="M86.505,91.893c-3.519,4.122-5.479,11.64-2.912,14.062c2.455,1.881,9.044,1.618,13.911-5.135
		c3.534-4.536,2.35-12.111,0.331-14.123C94.837,84.378,90.532,87.347,86.505,91.893z"/>
</g>
</svg>
